<svg xmlns="http://www.w3.org/2000/svg" xmlns:xlink="http://www.w3.org/1999/xlink" width="500" zoomAndPan="magnify" viewBox="0 0 375 374.999991" height="500" preserveAspectRatio="xMidYMid meet" version="1.0"><defs><g/><clipPath id="4c94ddee5f"><path d="M 89.867188 146.035156 L 284.867188 146.035156 L 284.867188 185.035156 L 89.867188 185.035156 Z M 89.867188 146.035156 " clip-rule="nonzero"/></clipPath><clipPath id="d96c887822"><path d="M 1.125 0.0351562 L 194 0.0351562 L 194 28 L 1.125 28 Z M 1.125 0.0351562 " clip-rule="nonzero"/></clipPath><clipPath id="8d4831a8e1"><path d="M 131 24 L 195.867188 24 L 195.867188 39 L 131 39 Z M 131 24 " clip-rule="nonzero"/></clipPath><clipPath id="a8fb0ff8a3"><rect x="0" width="196" y="0" height="40"/></clipPath></defs><rect x="-37.5" width="450" fill="#ffffff" y="-37.499999" height="449.999989" fill-opacity="1"/><rect x="-37.5" width="450" fill="#000000" y="-37.499999" height="449.999989" fill-opacity="1"/><g clip-path="url(#4c94ddee5f)"><g transform="matrix(1, 0, 0, 1, 89, 146)"><g clip-path="url(#a8fb0ff8a3)"><g clip-path="url(#d96c887822)"><path fill="#f7f8fd" d="M 178.171875 19.726562 C 175.769531 19.273438 173.386719 18.679688 171.046875 17.949219 C 168.707031 17.214844 166.390625 16.371094 164.105469 15.445312 C 161.816406 14.511719 159.542969 13.515625 157.269531 12.480469 L 150.382812 9.332031 C 148.058594 8.277344 145.691406 7.238281 143.253906 6.253906 C 142.640625 6.007812 142.035156 5.761719 141.410156 5.527344 L 140.480469 5.175781 L 139.542969 4.832031 C 138.917969 4.597656 138.273438 4.386719 137.640625 4.164062 C 137.320312 4.058594 136.996094 3.953125 136.675781 3.847656 C 136.351562 3.746094 136.035156 3.636719 135.707031 3.539062 C 135.050781 3.34375 134.402344 3.140625 133.738281 2.960938 C 133.40625 2.867188 133.074219 2.773438 132.742188 2.6875 L 131.734375 2.433594 C 131.066406 2.265625 130.398438 2.09375 129.714844 1.953125 L 128.699219 1.734375 C 128.359375 1.664062 128.019531 1.585938 127.675781 1.53125 L 125.621094 1.160156 L 123.550781 0.851562 C 123.378906 0.828125 123.207031 0.796875 123.03125 0.777344 L 122.511719 0.71875 L 121.472656 0.59375 C 121.125 0.558594 120.78125 0.507812 120.429688 0.480469 L 119.386719 0.386719 C 116.601562 0.144531 113.808594 0.03125 111.023438 0.0585938 C 108.242188 0.0859375 105.46875 0.222656 102.726562 0.472656 C 97.234375 0.964844 91.867188 1.894531 86.644531 3.09375 C 81.429688 4.3125 76.359375 5.8125 71.449219 7.53125 C 68.996094 8.394531 66.570312 9.296875 64.199219 10.265625 C 61.820312 11.226562 59.476562 12.234375 57.179688 13.289062 C 62.101562 11.644531 67.066406 10.085938 72.117188 8.75 C 77.160156 7.398438 82.285156 6.257812 87.457031 5.367188 C 90.046875 4.921875 92.652344 4.5625 95.261719 4.269531 C 96.566406 4.117188 97.875 4.003906 99.179688 3.890625 L 101.144531 3.757812 C 101.796875 3.714844 102.453125 3.691406 103.109375 3.660156 C 105.726562 3.550781 108.339844 3.527344 110.9375 3.613281 L 112.882812 3.703125 C 113.53125 3.746094 114.175781 3.796875 114.820312 3.84375 L 115.304688 3.878906 L 115.785156 3.921875 L 116.746094 4.015625 C 117.066406 4.050781 117.386719 4.074219 117.707031 4.113281 L 118.664062 4.234375 L 119.617188 4.351562 C 119.9375 4.390625 120.25 4.449219 120.566406 4.496094 L 121.511719 4.640625 L 121.984375 4.714844 C 122.140625 4.738281 122.296875 4.773438 122.453125 4.800781 L 124.320312 5.148438 L 126.167969 5.554688 C 126.476562 5.617188 126.777344 5.699219 127.082031 5.777344 L 127.992188 6.003906 C 128.605469 6.148438 129.195312 6.328125 129.792969 6.496094 L 130.691406 6.75 C 130.988281 6.839844 131.28125 6.9375 131.574219 7.027344 C 132.164062 7.210938 132.746094 7.414062 133.332031 7.609375 C 138 9.226562 142.460938 11.289062 146.933594 13.457031 C 151.414062 15.625 155.917969 17.910156 160.75 19.96875 C 161.675781 20.363281 162.613281 20.746094 163.5625 21.121094 C 160.699219 21.339844 157.828125 21.503906 154.949219 21.628906 L 152.214844 21.726562 L 149.476562 21.792969 C 148.5625 21.820312 147.648438 21.820312 146.734375 21.832031 L 145.363281 21.847656 C 144.90625 21.851562 144.449219 21.847656 143.992188 21.847656 C 140.332031 21.863281 136.664062 21.789062 132.996094 21.679688 C 129.324219 21.570312 125.652344 21.402344 121.976562 21.199219 C 118.300781 20.992188 114.621094 20.757812 110.9375 20.488281 C 103.574219 19.960938 96.203125 19.320312 88.808594 18.699219 C 81.417969 18.074219 74 17.453125 66.554688 16.949219 L 63.761719 16.765625 C 62.832031 16.703125 61.898438 16.644531 60.964844 16.589844 C 59.097656 16.480469 57.226562 16.382812 55.351562 16.296875 C 54.414062 16.253906 53.476562 16.222656 52.539062 16.183594 L 49.714844 16.09375 C 48.773438 16.078125 47.832031 16.058594 46.890625 16.046875 L 45.476562 16.039062 C 45.003906 16.03125 44.535156 16.03125 44.0625 16.035156 C 43.117188 16.042969 42.175781 16.039062 41.230469 16.0625 L 39.8125 16.089844 C 39.34375 16.101562 38.871094 16.121094 38.398438 16.136719 L 36.980469 16.191406 L 35.566406 16.265625 C 34.625 16.308594 33.683594 16.382812 32.742188 16.445312 C 28.976562 16.71875 25.230469 17.175781 21.550781 17.820312 C 17.867188 18.476562 14.261719 19.34375 10.796875 20.449219 C 7.335938 21.550781 4.011719 22.878906 0.941406 24.46875 C 7.578125 21.914062 14.734375 20.316406 21.984375 19.523438 C 29.253906 18.714844 36.617188 18.699219 43.945312 19.03125 C 44.402344 19.050781 44.859375 19.074219 45.320312 19.101562 L 46.691406 19.179688 C 47.609375 19.234375 48.527344 19.304688 49.441406 19.359375 L 52.191406 19.566406 C 53.105469 19.640625 54.023438 19.714844 54.9375 19.796875 C 56.773438 19.960938 58.605469 20.132812 60.4375 20.320312 C 62.273438 20.496094 64.109375 20.691406 65.945312 20.882812 C 73.289062 21.664062 80.632812 22.507812 88.003906 23.328125 C 102.734375 24.964844 117.589844 26.5 132.660156 27.085938 C 140.191406 27.378906 147.769531 27.417969 155.351562 27.109375 C 159.140625 26.941406 162.933594 26.707031 166.710938 26.351562 C 170.488281 25.992188 174.253906 25.535156 177.996094 24.972656 L 193.613281 22.628906 Z M 178.171875 19.726562 " fill-opacity="1" fill-rule="nonzero"/></g><g clip-path="url(#8d4831a8e1)"><path fill="#ff1616" d="M 136.730469 35.707031 C 142.550781 36.980469 148.453125 37.917969 154.386719 38.460938 C 161.828125 39.144531 169.410156 39.242188 176.804688 38.046875 C 180.402344 37.464844 183.964844 36.566406 187.335938 35.171875 C 190.097656 34.027344 195.332031 32.167969 195.828125 28.730469 C 196.007812 27.511719 196.054688 25.667969 194.523438 24.71875 C 192.546875 23.492188 189.898438 24.726562 188.050781 25.429688 C 185.84375 26.269531 183.667969 27.160156 181.285156 27.8125 C 178.308594 28.628906 175.230469 29.304688 172.121094 29.910156 C 168.617188 30.585938 165.046875 31.195312 161.441406 31.652344 C 163.222656 31.949219 166.175781 32.347656 167.777344 32.546875 C 169.6875 32.785156 171.609375 32.992188 173.542969 33.160156 C 175.574219 33.335938 177.671875 33.46875 179.773438 33.535156 C 170.421875 35.414062 154.496094 37.058594 131.335938 34.398438 C 133.15625 34.867188 134.972656 35.324219 136.730469 35.707031 Z M 136.730469 35.707031 " fill-opacity="1" fill-rule="nonzero"/></g></g></g></g><g fill="#f7f8fd" fill-opacity="1"><g transform="translate(91.506338, 216.184644)"><g><path d="M 14.953125 -19.75 C 15.421875 -19.75 15.710938 -19.648438 15.828125 -19.453125 C 15.953125 -19.253906 16.015625 -19.070312 16.015625 -18.90625 L 16.015625 -7.5 C 16.015625 -6.832031 15.984375 -6.207031 15.921875 -5.625 C 15.867188 -5.050781 15.796875 -4.535156 15.703125 -4.078125 C 15.585938 -3.597656 15.441406 -3.160156 15.265625 -2.765625 C 15.085938 -2.378906 14.890625 -2.023438 14.671875 -1.703125 C 14.171875 -1.097656 13.546875 -0.660156 12.796875 -0.390625 C 12.035156 -0.109375 11.132812 0.03125 10.09375 0.03125 L 2.59375 0.03125 C 2.488281 0.03125 2.347656 -0.015625 2.171875 -0.109375 C 2.003906 -0.210938 1.921875 -0.445312 1.921875 -0.8125 L 1.921875 -2.703125 C 1.921875 -3.078125 2.003906 -3.3125 2.171875 -3.40625 C 2.347656 -3.5 2.488281 -3.546875 2.59375 -3.546875 L 10 -3.546875 C 10.519531 -3.546875 10.925781 -3.601562 11.21875 -3.71875 C 11.539062 -3.8125 11.78125 -3.988281 11.9375 -4.25 C 12.113281 -4.46875 12.238281 -4.816406 12.3125 -5.296875 C 12.363281 -5.535156 12.394531 -5.804688 12.40625 -6.109375 C 12.425781 -6.410156 12.4375 -6.738281 12.4375 -7.09375 L 12.4375 -16.15625 C 12.4375 -16.15625 12.238281 -16.15625 11.84375 -16.15625 C 11.457031 -16.164062 10.976562 -16.171875 10.40625 -16.171875 C 9.84375 -16.171875 9.273438 -16.175781 8.703125 -16.1875 C 8.128906 -16.195312 7.644531 -16.203125 7.25 -16.203125 C 6.851562 -16.203125 6.65625 -16.203125 6.65625 -16.203125 C 6.550781 -16.203125 6.410156 -16.242188 6.234375 -16.328125 C 6.054688 -16.421875 5.96875 -16.648438 5.96875 -17.015625 L 5.96875 -18.90625 C 5.96875 -19.289062 6.054688 -19.523438 6.234375 -19.609375 C 6.410156 -19.703125 6.550781 -19.75 6.65625 -19.75 Z M 14.953125 -19.75 "/></g></g></g><g fill="#f7f8fd" fill-opacity="1"><g transform="translate(109.422635, 216.184644)"><g><path d="M 18.890625 -19.75 C 18.984375 -19.75 19.117188 -19.703125 19.296875 -19.609375 C 19.472656 -19.523438 19.5625 -19.289062 19.5625 -18.90625 L 19.5625 -3.0625 C 19.5625 -1.894531 19.394531 -1.097656 19.0625 -0.671875 C 18.71875 -0.203125 18.195312 0.03125 17.5 0.03125 L 15.75 0.03125 C 15.425781 0.03125 15.15625 0.00390625 14.9375 -0.046875 C 14.820312 -0.078125 14.707031 -0.113281 14.59375 -0.15625 C 14.476562 -0.195312 14.375 -0.25 14.28125 -0.3125 C 14.09375 -0.425781 13.921875 -0.601562 13.765625 -0.84375 C 13.679688 -0.945312 13.585938 -1.070312 13.484375 -1.21875 C 13.390625 -1.363281 13.296875 -1.53125 13.203125 -1.71875 L 5.609375 -15.203125 C 5.585938 -15.234375 5.566406 -15.25 5.546875 -15.25 C 5.535156 -15.257812 5.53125 -15.265625 5.53125 -15.265625 L 5.421875 -15.265625 C 5.421875 -15.265625 5.421875 -15.257812 5.421875 -15.25 C 5.421875 -15.25 5.421875 -15.238281 5.421875 -15.21875 L 5.421875 -0.8125 C 5.421875 -0.445312 5.332031 -0.210938 5.15625 -0.109375 C 4.988281 -0.015625 4.851562 0.03125 4.75 0.03125 L 2.609375 0.03125 C 2.492188 0.03125 2.347656 -0.015625 2.171875 -0.109375 C 2.003906 -0.210938 1.921875 -0.445312 1.921875 -0.8125 L 1.921875 -16.65625 C 1.921875 -17.820312 2.085938 -18.628906 2.421875 -19.078125 C 2.773438 -19.523438 3.296875 -19.75 3.984375 -19.75 L 5.78125 -19.75 C 5.9375 -19.75 6.085938 -19.742188 6.234375 -19.734375 C 6.378906 -19.722656 6.503906 -19.710938 6.609375 -19.703125 C 6.867188 -19.648438 7.09375 -19.554688 7.28125 -19.421875 C 7.445312 -19.304688 7.617188 -19.117188 7.796875 -18.859375 C 7.867188 -18.753906 7.945312 -18.628906 8.03125 -18.484375 C 8.125 -18.335938 8.21875 -18.175781 8.3125 -18 L 15.890625 -4.53125 C 15.910156 -4.476562 15.9375 -4.453125 15.96875 -4.453125 L 16.078125 -4.453125 C 16.078125 -4.472656 16.078125 -4.484375 16.078125 -4.484375 C 16.078125 -4.484375 16.078125 -4.488281 16.078125 -4.5 L 16.078125 -18.90625 C 16.078125 -19.289062 16.160156 -19.523438 16.328125 -19.609375 C 16.503906 -19.703125 16.644531 -19.75 16.75 -19.75 Z M 18.890625 -19.75 "/></g></g></g><g fill="#f7f8fd" fill-opacity="1"><g transform="translate(130.884002, 216.184644)"><g/></g></g><g fill="#f7f8fd" fill-opacity="1"><g transform="translate(143.195246, 216.184644)"><g><path d="M 13.65625 -19.75 C 15.289062 -19.75 16.46875 -19.238281 17.1875 -18.21875 C 17.882812 -17.257812 18.234375 -15.8125 18.234375 -13.875 L 18.234375 -14.015625 C 18.234375 -12.117188 17.882812 -10.675781 17.1875 -9.6875 C 16.46875 -8.675781 15.289062 -8.171875 13.65625 -8.171875 L 5.46875 -8.15625 L 5.46875 -0.8125 C 5.46875 -0.445312 5.378906 -0.210938 5.203125 -0.109375 C 5.023438 -0.015625 4.890625 0.03125 4.796875 0.03125 L 2.59375 0.03125 C 2.488281 0.03125 2.347656 -0.015625 2.171875 -0.109375 C 2.003906 -0.210938 1.921875 -0.445312 1.921875 -0.8125 L 1.921875 -10.875 C 1.921875 -11.25 2.003906 -11.476562 2.171875 -11.5625 C 2.347656 -11.65625 2.488281 -11.703125 2.59375 -11.703125 L 13.03125 -11.703125 C 13.644531 -11.703125 14.070312 -11.875 14.3125 -12.21875 C 14.5625 -12.570312 14.6875 -13.148438 14.6875 -13.953125 C 14.6875 -14.742188 14.5625 -15.316406 14.3125 -15.671875 C 14.070312 -16.023438 13.644531 -16.203125 13.03125 -16.203125 L 2.59375 -16.203125 C 2.488281 -16.203125 2.347656 -16.242188 2.171875 -16.328125 C 2.003906 -16.421875 1.921875 -16.648438 1.921875 -17.015625 L 1.921875 -18.90625 C 1.921875 -19.289062 2.003906 -19.523438 2.171875 -19.609375 C 2.347656 -19.703125 2.488281 -19.75 2.59375 -19.75 Z M 13.65625 -19.75 "/></g></g></g><g fill="#f7f8fd" fill-opacity="1"><g transform="translate(163.339193, 216.184644)"><g><path d="M 14.765625 -17.515625 L 21.5 -0.90625 C 21.59375 -0.6875 21.617188 -0.492188 21.578125 -0.328125 C 21.554688 -0.265625 21.507812 -0.1875 21.4375 -0.09375 C 21.363281 -0.0078125 21.234375 0.03125 21.046875 0.03125 L 18.484375 0.03125 C 18.140625 0.03125 17.90625 -0.144531 17.78125 -0.5 L 11.84375 -15.34375 C 11.820312 -15.375 11.8125 -15.390625 11.8125 -15.390625 L 11.71875 -15.390625 C 11.71875 -15.390625 11.710938 -15.382812 11.703125 -15.375 C 11.703125 -15.363281 11.691406 -15.34375 11.671875 -15.3125 L 8.609375 -7.546875 L 11.578125 -7.546875 C 11.910156 -7.546875 12.140625 -7.390625 12.265625 -7.078125 L 13.140625 -4.9375 C 13.210938 -4.664062 13.175781 -4.4375 13.03125 -4.25 C 12.90625 -4.019531 12.703125 -3.90625 12.421875 -3.90625 L 7.171875 -3.90625 L 5.796875 -0.484375 C 5.671875 -0.140625 5.445312 0.03125 5.125 0.03125 L 2.5 0.03125 C 2.300781 0.03125 2.164062 -0.0078125 2.09375 -0.09375 C 2.019531 -0.1875 1.976562 -0.265625 1.96875 -0.328125 C 1.914062 -0.472656 1.929688 -0.664062 2.015625 -0.90625 L 8.703125 -17.515625 C 9.023438 -18.367188 9.375 -18.953125 9.75 -19.265625 C 9.800781 -19.296875 9.859375 -19.335938 9.921875 -19.390625 C 9.984375 -19.441406 10.046875 -19.484375 10.109375 -19.515625 C 10.585938 -19.847656 11.140625 -20.015625 11.765625 -20.015625 C 12.421875 -20.015625 13.007812 -19.8125 13.53125 -19.40625 C 14.0625 -19.007812 14.425781 -18.5 14.625 -17.875 C 14.65625 -17.832031 14.679688 -17.773438 14.703125 -17.703125 C 14.722656 -17.640625 14.742188 -17.578125 14.765625 -17.515625 Z M 14.765625 -17.515625 "/></g></g></g><g fill="#f7f8fd" fill-opacity="1"><g transform="translate(186.860542, 216.184644)"><g><path d="M 18.265625 -14.015625 L 18.265625 -13.875 C 18.265625 -13.894531 18.265625 -13.90625 18.265625 -13.90625 C 18.265625 -13.914062 18.265625 -13.929688 18.265625 -13.953125 C 18.265625 -13.960938 18.265625 -13.972656 18.265625 -13.984375 C 18.265625 -13.992188 18.265625 -14.003906 18.265625 -14.015625 Z M 18.71875 -1.03125 C 18.8125 -0.90625 18.84375 -0.710938 18.8125 -0.453125 C 18.769531 -0.128906 18.585938 0.03125 18.265625 0.03125 L 15.625 0.03125 C 15.414062 0.03125 15.25 -0.0195312 15.125 -0.125 C 15.070312 -0.15625 15.023438 -0.203125 14.984375 -0.265625 C 14.953125 -0.328125 14.910156 -0.390625 14.859375 -0.453125 L 10.515625 -8.15625 L 5.46875 -8.15625 L 5.46875 -0.8125 C 5.46875 -0.445312 5.382812 -0.210938 5.21875 -0.109375 C 5.050781 -0.015625 4.910156 0.03125 4.796875 0.03125 L 2.609375 0.03125 C 2.492188 0.03125 2.347656 -0.015625 2.171875 -0.109375 C 2.003906 -0.210938 1.921875 -0.445312 1.921875 -0.8125 L 1.921875 -10.875 C 1.921875 -11.25 2.003906 -11.476562 2.171875 -11.5625 C 2.347656 -11.65625 2.492188 -11.703125 2.609375 -11.703125 L 13.03125 -11.703125 C 13.644531 -11.703125 14.070312 -11.875 14.3125 -12.21875 C 14.5625 -12.570312 14.6875 -13.148438 14.6875 -13.953125 C 14.6875 -14.742188 14.5625 -15.316406 14.3125 -15.671875 C 14.070312 -16.023438 13.644531 -16.203125 13.03125 -16.203125 L 2.609375 -16.203125 C 2.492188 -16.203125 2.347656 -16.242188 2.171875 -16.328125 C 2.003906 -16.421875 1.921875 -16.648438 1.921875 -17.015625 L 1.921875 -18.90625 C 1.921875 -19.289062 2.003906 -19.523438 2.171875 -19.609375 C 2.347656 -19.703125 2.492188 -19.75 2.609375 -19.75 L 13.65625 -19.75 C 15.300781 -19.75 16.484375 -19.238281 17.203125 -18.21875 C 17.890625 -17.226562 18.242188 -15.804688 18.265625 -13.953125 C 18.242188 -12.097656 17.890625 -10.675781 17.203125 -9.6875 C 16.597656 -8.851562 15.707031 -8.363281 14.53125 -8.21875 Z M 18.71875 -1.03125 "/></g></g></g><g fill="#f7f8fd" fill-opacity="1"><g transform="translate(207.603311, 216.184644)"><g><path d="M 18.484375 -19.75 C 18.585938 -19.75 18.726562 -19.703125 18.90625 -19.609375 C 19.082031 -19.523438 19.171875 -19.300781 19.171875 -18.9375 L 19.171875 -17.0625 C 19.171875 -16.664062 19.082031 -16.421875 18.90625 -16.328125 C 18.726562 -16.242188 18.585938 -16.203125 18.484375 -16.203125 L 12.3125 -16.203125 L 12.3125 -0.8125 C 12.3125 -0.445312 12.226562 -0.21875 12.0625 -0.125 C 11.894531 -0.0390625 11.757812 0 11.65625 0 L 9.4375 0 C 9.34375 0 9.207031 -0.0390625 9.03125 -0.125 C 8.851562 -0.21875 8.765625 -0.445312 8.765625 -0.8125 L 8.765625 -16.203125 L 2.609375 -16.203125 C 2.492188 -16.203125 2.347656 -16.242188 2.171875 -16.328125 C 2.003906 -16.421875 1.921875 -16.664062 1.921875 -17.0625 L 1.921875 -18.9375 C 1.921875 -19.300781 2.003906 -19.523438 2.171875 -19.609375 C 2.347656 -19.703125 2.492188 -19.75 2.609375 -19.75 Z M 18.484375 -19.75 "/></g></g></g><g fill="#f7f8fd" fill-opacity="1"><g transform="translate(228.681427, 216.184644)"><g><path d="M 13.5 -11.796875 C 14.738281 -11.796875 15.6875 -11.351562 16.34375 -10.46875 C 16.96875 -9.613281 17.28125 -8.398438 17.28125 -6.828125 L 17.28125 -4.71875 C 17.28125 -3.34375 16.976562 -2.21875 16.375 -1.34375 C 15.75 -0.445312 14.773438 0 13.453125 0 L 2.640625 0 C 2.523438 0 2.378906 -0.0390625 2.203125 -0.125 C 2.023438 -0.21875 1.9375 -0.445312 1.9375 -0.8125 L 1.9375 -2.734375 C 1.9375 -3.097656 2.023438 -3.320312 2.203125 -3.40625 C 2.378906 -3.5 2.523438 -3.546875 2.640625 -3.546875 L 12.875 -3.546875 C 13.082031 -3.546875 13.226562 -3.582031 13.3125 -3.65625 C 13.40625 -3.726562 13.472656 -3.796875 13.515625 -3.859375 C 13.660156 -4.097656 13.734375 -4.429688 13.734375 -4.859375 L 13.734375 -6.921875 C 13.734375 -7.515625 13.632812 -7.882812 13.4375 -8.03125 C 13.25 -8.175781 13.066406 -8.25 12.890625 -8.25 L 5.703125 -8.25 C 5.210938 -8.25 4.707031 -8.3125 4.1875 -8.4375 C 3.664062 -8.5625 3.222656 -8.875 2.859375 -9.375 C 2.234375 -10.25 1.921875 -11.523438 1.921875 -13.203125 L 1.921875 -15.03125 C 1.921875 -16.4375 2.234375 -17.570312 2.859375 -18.4375 C 3.472656 -19.3125 4.4375 -19.75 5.75 -19.75 L 16.078125 -19.75 C 16.179688 -19.75 16.316406 -19.703125 16.484375 -19.609375 C 16.660156 -19.523438 16.75 -19.300781 16.75 -18.9375 L 16.75 -17.015625 C 16.75 -16.648438 16.660156 -16.421875 16.484375 -16.328125 C 16.316406 -16.242188 16.179688 -16.203125 16.078125 -16.203125 L 6.328125 -16.203125 C 6.117188 -16.203125 5.96875 -16.171875 5.875 -16.109375 C 5.789062 -16.046875 5.726562 -15.972656 5.6875 -15.890625 C 5.550781 -15.628906 5.484375 -15.296875 5.484375 -14.890625 L 5.484375 -13.109375 C 5.484375 -12.515625 5.578125 -12.144531 5.765625 -12 C 5.953125 -11.863281 6.128906 -11.796875 6.296875 -11.796875 Z M 13.5 -11.796875 "/></g></g></g><g fill="#f7f8fd" fill-opacity="1"><g transform="translate(247.86724, 216.184644)"><g/></g></g><g fill="#f7f8fd" fill-opacity="1"><g transform="translate(260.178484, 216.184644)"><g><path d="M 15.703125 -5.578125 L 19.984375 -1.203125 C 20.179688 -0.992188 20.238281 -0.742188 20.15625 -0.453125 C 20.0625 -0.128906 19.847656 0.03125 19.515625 0.03125 L 16.796875 0.03125 C 16.609375 0.03125 16.4375 -0.0078125 16.28125 -0.09375 C 16.144531 -0.175781 16.03125 -0.273438 15.9375 -0.390625 L 13.65625 -2.75 L 13.109375 -2.015625 C 12.960938 -1.804688 12.820312 -1.617188 12.6875 -1.453125 C 12.550781 -1.285156 12.421875 -1.132812 12.296875 -1 C 12.035156 -0.75 11.753906 -0.535156 11.453125 -0.359375 C 11.296875 -0.296875 11.128906 -0.234375 10.953125 -0.171875 C 10.773438 -0.117188 10.597656 -0.078125 10.421875 -0.046875 C 10.078125 0.00390625 9.640625 0.03125 9.109375 0.03125 L 5.078125 0.03125 C 4.109375 0.03125 3.332031 -0.289062 2.75 -0.9375 C 2.195312 -1.539062 1.921875 -2.503906 1.921875 -3.828125 L 1.921875 -5.296875 C 1.921875 -6.222656 2.078125 -7.019531 2.390625 -7.6875 C 2.703125 -8.332031 3.253906 -8.898438 4.046875 -9.390625 L 6.109375 -10.6875 L 5.21875 -11.65625 C 5.09375 -11.78125 4.984375 -11.898438 4.890625 -12.015625 C 4.796875 -12.140625 4.707031 -12.257812 4.625 -12.375 C 4.5625 -12.476562 4.492188 -12.585938 4.421875 -12.703125 C 4.347656 -12.828125 4.289062 -12.945312 4.25 -13.0625 C 4.132812 -13.351562 4.066406 -13.617188 4.046875 -13.859375 C 4.003906 -14.140625 3.984375 -14.445312 3.984375 -14.78125 L 3.984375 -16.296875 C 3.984375 -17.273438 4.164062 -18.054688 4.53125 -18.640625 C 4.914062 -19.296875 5.5625 -19.625 6.46875 -19.625 L 11.796875 -19.625 C 12.691406 -19.625 13.351562 -19.335938 13.78125 -18.765625 C 14.195312 -18.222656 14.40625 -17.550781 14.40625 -16.75 L 14.40625 -14.78125 C 14.40625 -14.289062 14.378906 -13.863281 14.328125 -13.5 C 14.285156 -13.113281 14.195312 -12.769531 14.0625 -12.46875 C 13.925781 -12.144531 13.738281 -11.863281 13.5 -11.625 C 13.257812 -11.382812 12.953125 -11.15625 12.578125 -10.9375 L 11.296875 -10.09375 L 13.296875 -8.03125 L 14.578125 -9.734375 C 14.828125 -10.066406 15.15625 -10.234375 15.5625 -10.234375 L 18.03125 -10.234375 C 18.25 -10.234375 18.40625 -10.128906 18.5 -9.921875 C 18.59375 -9.710938 18.578125 -9.519531 18.453125 -9.34375 Z M 7.640625 -15.296875 L 7.640625 -14.5 C 7.640625 -14.320312 7.644531 -14.1875 7.65625 -14.09375 C 7.675781 -14 7.695312 -13.9375 7.71875 -13.90625 C 7.75 -13.8125 7.867188 -13.644531 8.078125 -13.40625 L 8.984375 -12.46875 L 10.375 -13.34375 C 10.550781 -13.445312 10.671875 -13.53125 10.734375 -13.59375 C 10.796875 -13.664062 10.835938 -13.726562 10.859375 -13.78125 C 10.890625 -13.832031 10.910156 -13.910156 10.921875 -14.015625 C 10.941406 -14.128906 10.953125 -14.289062 10.953125 -14.5 L 10.953125 -15.453125 C 10.953125 -15.660156 10.910156 -15.820312 10.828125 -15.9375 C 10.765625 -16.03125 10.644531 -16.078125 10.46875 -16.078125 L 8.046875 -16.078125 C 7.984375 -16.078125 7.898438 -16.046875 7.796875 -15.984375 C 7.691406 -15.921875 7.640625 -15.691406 7.640625 -15.296875 Z M 10.515625 -4.34375 L 11.234375 -5.296875 L 8.359375 -8.3125 L 6.5 -7.140625 C 5.9375 -6.835938 5.65625 -6.265625 5.65625 -5.421875 L 5.65625 -4.71875 C 5.65625 -4.445312 5.675781 -4.238281 5.71875 -4.09375 C 5.769531 -3.957031 5.820312 -3.863281 5.875 -3.8125 C 6.019531 -3.65625 6.21875 -3.578125 6.46875 -3.578125 L 9.015625 -3.578125 C 9.128906 -3.578125 9.234375 -3.578125 9.328125 -3.578125 C 9.421875 -3.585938 9.5 -3.601562 9.5625 -3.625 C 9.738281 -3.65625 9.859375 -3.6875 9.921875 -3.71875 C 10.035156 -3.757812 10.125 -3.832031 10.1875 -3.9375 C 10.25 -3.976562 10.300781 -4.035156 10.34375 -4.109375 C 10.394531 -4.179688 10.453125 -4.257812 10.515625 -4.34375 Z M 10.515625 -4.34375 "/></g></g></g><g fill="#f7f8fd" fill-opacity="1"><g transform="translate(77.326652, 249.184642)"><g><path d="M 14.765625 -17.515625 L 21.5 -0.90625 C 21.59375 -0.6875 21.617188 -0.492188 21.578125 -0.328125 C 21.554688 -0.265625 21.507812 -0.1875 21.4375 -0.09375 C 21.363281 -0.0078125 21.234375 0.03125 21.046875 0.03125 L 18.484375 0.03125 C 18.140625 0.03125 17.90625 -0.144531 17.78125 -0.5 L 11.84375 -15.34375 C 11.820312 -15.375 11.8125 -15.390625 11.8125 -15.390625 L 11.71875 -15.390625 C 11.71875 -15.390625 11.710938 -15.382812 11.703125 -15.375 C 11.703125 -15.363281 11.691406 -15.34375 11.671875 -15.3125 L 8.609375 -7.546875 L 11.578125 -7.546875 C 11.910156 -7.546875 12.140625 -7.390625 12.265625 -7.078125 L 13.140625 -4.9375 C 13.210938 -4.664062 13.175781 -4.4375 13.03125 -4.25 C 12.90625 -4.019531 12.703125 -3.90625 12.421875 -3.90625 L 7.171875 -3.90625 L 5.796875 -0.484375 C 5.671875 -0.140625 5.445312 0.03125 5.125 0.03125 L 2.5 0.03125 C 2.300781 0.03125 2.164062 -0.0078125 2.09375 -0.09375 C 2.019531 -0.1875 1.976562 -0.265625 1.96875 -0.328125 C 1.914062 -0.472656 1.929688 -0.664062 2.015625 -0.90625 L 8.703125 -17.515625 C 9.023438 -18.367188 9.375 -18.953125 9.75 -19.265625 C 9.800781 -19.296875 9.859375 -19.335938 9.921875 -19.390625 C 9.984375 -19.441406 10.046875 -19.484375 10.109375 -19.515625 C 10.585938 -19.847656 11.140625 -20.015625 11.765625 -20.015625 C 12.421875 -20.015625 13.007812 -19.8125 13.53125 -19.40625 C 14.0625 -19.007812 14.425781 -18.5 14.625 -17.875 C 14.65625 -17.832031 14.679688 -17.773438 14.703125 -17.703125 C 14.722656 -17.640625 14.742188 -17.578125 14.765625 -17.515625 Z M 14.765625 -17.515625 "/></g></g></g><g fill="#f7f8fd" fill-opacity="1"><g transform="translate(100.848001, 249.184642)"><g><path d="M 16.5625 -19.75 C 16.65625 -19.75 16.789062 -19.703125 16.96875 -19.609375 C 17.144531 -19.515625 17.234375 -19.28125 17.234375 -18.90625 L 17.234375 -17.0625 C 17.234375 -16.675781 17.144531 -16.4375 16.96875 -16.34375 C 16.789062 -16.25 16.65625 -16.203125 16.5625 -16.203125 L 7.953125 -16.203125 C 7.410156 -16.203125 7 -16.144531 6.71875 -16.03125 C 6.425781 -15.9375 6.179688 -15.757812 5.984375 -15.5 C 5.816406 -15.257812 5.679688 -14.910156 5.578125 -14.453125 C 5.546875 -14.234375 5.519531 -13.972656 5.5 -13.671875 C 5.476562 -13.378906 5.46875 -13.046875 5.46875 -12.671875 L 5.46875 -7.09375 C 5.46875 -6.738281 5.476562 -6.410156 5.5 -6.109375 C 5.519531 -5.804688 5.546875 -5.535156 5.578125 -5.296875 C 5.628906 -5.078125 5.6875 -4.878906 5.75 -4.703125 C 5.8125 -4.523438 5.890625 -4.375 5.984375 -4.25 C 6.179688 -3.988281 6.425781 -3.8125 6.71875 -3.71875 C 7 -3.601562 7.410156 -3.546875 7.953125 -3.546875 L 16.5625 -3.546875 C 16.65625 -3.546875 16.789062 -3.5 16.96875 -3.40625 C 17.144531 -3.3125 17.234375 -3.078125 17.234375 -2.703125 L 17.234375 -0.8125 C 17.234375 -0.445312 17.144531 -0.210938 16.96875 -0.109375 C 16.789062 -0.015625 16.65625 0.03125 16.5625 0.03125 L 7.84375 0.03125 C 6.800781 0.03125 5.894531 -0.109375 5.125 -0.390625 C 4.394531 -0.640625 3.78125 -1.078125 3.28125 -1.703125 C 2.789062 -2.335938 2.441406 -3.117188 2.234375 -4.046875 C 2.117188 -4.523438 2.035156 -5.050781 1.984375 -5.625 C 1.941406 -6.207031 1.921875 -6.832031 1.921875 -7.5 L 1.921875 -12.25 C 1.921875 -12.90625 1.941406 -13.519531 1.984375 -14.09375 C 2.035156 -14.664062 2.117188 -15.1875 2.234375 -15.65625 C 2.441406 -16.613281 2.789062 -17.394531 3.28125 -18 C 3.75 -18.601562 4.363281 -19.050781 5.125 -19.34375 C 5.894531 -19.613281 6.800781 -19.75 7.84375 -19.75 Z M 16.5625 -19.75 "/></g></g></g><g fill="#f7f8fd" fill-opacity="1"><g transform="translate(119.985909, 249.184642)"><g><path d="M 16.5625 -19.75 C 16.65625 -19.75 16.789062 -19.703125 16.96875 -19.609375 C 17.144531 -19.515625 17.234375 -19.28125 17.234375 -18.90625 L 17.234375 -17.0625 C 17.234375 -16.675781 17.144531 -16.4375 16.96875 -16.34375 C 16.789062 -16.25 16.65625 -16.203125 16.5625 -16.203125 L 7.953125 -16.203125 C 7.410156 -16.203125 7 -16.144531 6.71875 -16.03125 C 6.425781 -15.9375 6.179688 -15.757812 5.984375 -15.5 C 5.816406 -15.257812 5.679688 -14.910156 5.578125 -14.453125 C 5.546875 -14.234375 5.519531 -13.972656 5.5 -13.671875 C 5.476562 -13.378906 5.46875 -13.046875 5.46875 -12.671875 L 5.46875 -7.09375 C 5.46875 -6.738281 5.476562 -6.410156 5.5 -6.109375 C 5.519531 -5.804688 5.546875 -5.535156 5.578125 -5.296875 C 5.628906 -5.078125 5.6875 -4.878906 5.75 -4.703125 C 5.8125 -4.523438 5.890625 -4.375 5.984375 -4.25 C 6.179688 -3.988281 6.425781 -3.8125 6.71875 -3.71875 C 7 -3.601562 7.410156 -3.546875 7.953125 -3.546875 L 16.5625 -3.546875 C 16.65625 -3.546875 16.789062 -3.5 16.96875 -3.40625 C 17.144531 -3.3125 17.234375 -3.078125 17.234375 -2.703125 L 17.234375 -0.8125 C 17.234375 -0.445312 17.144531 -0.210938 16.96875 -0.109375 C 16.789062 -0.015625 16.65625 0.03125 16.5625 0.03125 L 7.84375 0.03125 C 6.800781 0.03125 5.894531 -0.109375 5.125 -0.390625 C 4.394531 -0.640625 3.78125 -1.078125 3.28125 -1.703125 C 2.789062 -2.335938 2.441406 -3.117188 2.234375 -4.046875 C 2.117188 -4.523438 2.035156 -5.050781 1.984375 -5.625 C 1.941406 -6.207031 1.921875 -6.832031 1.921875 -7.5 L 1.921875 -12.25 C 1.921875 -12.90625 1.941406 -13.519531 1.984375 -14.09375 C 2.035156 -14.664062 2.117188 -15.1875 2.234375 -15.65625 C 2.441406 -16.613281 2.789062 -17.394531 3.28125 -18 C 3.75 -18.601562 4.363281 -19.050781 5.125 -19.34375 C 5.894531 -19.613281 6.800781 -19.75 7.84375 -19.75 Z M 16.5625 -19.75 "/></g></g></g><g fill="#f7f8fd" fill-opacity="1"><g transform="translate(139.123817, 249.184642)"><g><path d="M 16.328125 -4.296875 C 16.429688 -4.296875 16.570312 -4.25 16.75 -4.15625 C 16.925781 -4.070312 17.015625 -3.84375 17.015625 -3.46875 L 17.015625 -0.84375 C 17.015625 -0.46875 16.925781 -0.238281 16.75 -0.15625 C 16.570312 -0.0703125 16.429688 -0.03125 16.328125 -0.03125 L 7.8125 -0.03125 C 7.28125 -0.03125 6.789062 -0.0625 6.34375 -0.125 C 5.90625 -0.1875 5.5 -0.289062 5.125 -0.4375 C 4.34375 -0.707031 3.722656 -1.144531 3.265625 -1.75 C 2.785156 -2.375 2.441406 -3.15625 2.234375 -4.09375 C 2.148438 -4.5 2.078125 -4.941406 2.015625 -5.421875 C 1.960938 -5.898438 1.929688 -6.414062 1.921875 -6.96875 L 1.921875 -7.09375 L 1.96875 -10.109375 C 2.007812 -10.285156 2.097656 -10.488281 2.234375 -10.71875 C 2.578125 -11.34375 3.117188 -11.675781 3.859375 -11.71875 L 16.234375 -11.75 C 16.328125 -11.75 16.457031 -11.703125 16.625 -11.609375 C 16.800781 -11.523438 16.890625 -11.300781 16.890625 -10.9375 L 16.890625 -9.03125 C 16.890625 -8.664062 16.800781 -8.4375 16.625 -8.34375 C 16.457031 -8.25 16.328125 -8.203125 16.234375 -8.203125 L 5.515625 -8.203125 C 5.515625 -8.203125 5.507812 -8.113281 5.5 -7.9375 C 5.488281 -7.757812 5.476562 -7.554688 5.46875 -7.328125 C 5.46875 -7.109375 5.46875 -6.910156 5.46875 -6.734375 C 5.46875 -6.554688 5.46875 -6.46875 5.46875 -6.46875 C 5.476562 -6.40625 5.484375 -6.335938 5.484375 -6.265625 C 5.484375 -6.191406 5.492188 -6.125 5.515625 -6.0625 C 5.578125 -5.613281 5.710938 -5.253906 5.921875 -4.984375 C 6.109375 -4.742188 6.347656 -4.566406 6.640625 -4.453125 C 6.816406 -4.410156 7.003906 -4.375 7.203125 -4.34375 C 7.398438 -4.3125 7.628906 -4.296875 7.890625 -4.296875 Z M 4.03125 -11.53125 Z M 16.34375 -19.796875 C 16.4375 -19.796875 16.570312 -19.75 16.75 -19.65625 C 16.925781 -19.5625 17.015625 -19.328125 17.015625 -18.953125 L 17.015625 -17.0625 C 17.015625 -16.695312 16.925781 -16.46875 16.75 -16.375 C 16.570312 -16.28125 16.4375 -16.234375 16.34375 -16.234375 L 2.5625 -16.25 C 2.46875 -16.25 2.335938 -16.289062 2.171875 -16.375 C 2.003906 -16.46875 1.921875 -16.695312 1.921875 -17.0625 L 1.921875 -18.9375 C 1.921875 -19.320312 2.003906 -19.5625 2.171875 -19.65625 C 2.335938 -19.75 2.46875 -19.796875 2.5625 -19.796875 Z M 16.34375 -19.796875 "/></g></g></g><g fill="#f7f8fd" fill-opacity="1"><g transform="translate(158.046152, 249.184642)"><g><path d="M 13.5 -11.796875 C 14.738281 -11.796875 15.6875 -11.351562 16.34375 -10.46875 C 16.96875 -9.613281 17.28125 -8.398438 17.28125 -6.828125 L 17.28125 -4.71875 C 17.28125 -3.34375 16.976562 -2.21875 16.375 -1.34375 C 15.75 -0.445312 14.773438 0 13.453125 0 L 2.640625 0 C 2.523438 0 2.378906 -0.0390625 2.203125 -0.125 C 2.023438 -0.21875 1.9375 -0.445312 1.9375 -0.8125 L 1.9375 -2.734375 C 1.9375 -3.097656 2.023438 -3.320312 2.203125 -3.40625 C 2.378906 -3.5 2.523438 -3.546875 2.640625 -3.546875 L 12.875 -3.546875 C 13.082031 -3.546875 13.226562 -3.582031 13.3125 -3.65625 C 13.40625 -3.726562 13.472656 -3.796875 13.515625 -3.859375 C 13.660156 -4.097656 13.734375 -4.429688 13.734375 -4.859375 L 13.734375 -6.921875 C 13.734375 -7.515625 13.632812 -7.882812 13.4375 -8.03125 C 13.25 -8.175781 13.066406 -8.25 12.890625 -8.25 L 5.703125 -8.25 C 5.210938 -8.25 4.707031 -8.3125 4.1875 -8.4375 C 3.664062 -8.5625 3.222656 -8.875 2.859375 -9.375 C 2.234375 -10.25 1.921875 -11.523438 1.921875 -13.203125 L 1.921875 -15.03125 C 1.921875 -16.4375 2.234375 -17.570312 2.859375 -18.4375 C 3.472656 -19.3125 4.4375 -19.75 5.75 -19.75 L 16.078125 -19.75 C 16.179688 -19.75 16.316406 -19.703125 16.484375 -19.609375 C 16.660156 -19.523438 16.75 -19.300781 16.75 -18.9375 L 16.75 -17.015625 C 16.75 -16.648438 16.660156 -16.421875 16.484375 -16.328125 C 16.316406 -16.242188 16.179688 -16.203125 16.078125 -16.203125 L 6.328125 -16.203125 C 6.117188 -16.203125 5.96875 -16.171875 5.875 -16.109375 C 5.789062 -16.046875 5.726562 -15.972656 5.6875 -15.890625 C 5.550781 -15.628906 5.484375 -15.296875 5.484375 -14.890625 L 5.484375 -13.109375 C 5.484375 -12.515625 5.578125 -12.144531 5.765625 -12 C 5.953125 -11.863281 6.128906 -11.796875 6.296875 -11.796875 Z M 13.5 -11.796875 "/></g></g></g><g fill="#f7f8fd" fill-opacity="1"><g transform="translate(177.231964, 249.184642)"><g><path d="M 13.5 -11.796875 C 14.738281 -11.796875 15.6875 -11.351562 16.34375 -10.46875 C 16.96875 -9.613281 17.28125 -8.398438 17.28125 -6.828125 L 17.28125 -4.71875 C 17.28125 -3.34375 16.976562 -2.21875 16.375 -1.34375 C 15.75 -0.445312 14.773438 0 13.453125 0 L 2.640625 0 C 2.523438 0 2.378906 -0.0390625 2.203125 -0.125 C 2.023438 -0.21875 1.9375 -0.445312 1.9375 -0.8125 L 1.9375 -2.734375 C 1.9375 -3.097656 2.023438 -3.320312 2.203125 -3.40625 C 2.378906 -3.5 2.523438 -3.546875 2.640625 -3.546875 L 12.875 -3.546875 C 13.082031 -3.546875 13.226562 -3.582031 13.3125 -3.65625 C 13.40625 -3.726562 13.472656 -3.796875 13.515625 -3.859375 C 13.660156 -4.097656 13.734375 -4.429688 13.734375 -4.859375 L 13.734375 -6.921875 C 13.734375 -7.515625 13.632812 -7.882812 13.4375 -8.03125 C 13.25 -8.175781 13.066406 -8.25 12.890625 -8.25 L 5.703125 -8.25 C 5.210938 -8.25 4.707031 -8.3125 4.1875 -8.4375 C 3.664062 -8.5625 3.222656 -8.875 2.859375 -9.375 C 2.234375 -10.25 1.921875 -11.523438 1.921875 -13.203125 L 1.921875 -15.03125 C 1.921875 -16.4375 2.234375 -17.570312 2.859375 -18.4375 C 3.472656 -19.3125 4.4375 -19.75 5.75 -19.75 L 16.078125 -19.75 C 16.179688 -19.75 16.316406 -19.703125 16.484375 -19.609375 C 16.660156 -19.523438 16.75 -19.300781 16.75 -18.9375 L 16.75 -17.015625 C 16.75 -16.648438 16.660156 -16.421875 16.484375 -16.328125 C 16.316406 -16.242188 16.179688 -16.203125 16.078125 -16.203125 L 6.328125 -16.203125 C 6.117188 -16.203125 5.96875 -16.171875 5.875 -16.109375 C 5.789062 -16.046875 5.726562 -15.972656 5.6875 -15.890625 C 5.550781 -15.628906 5.484375 -15.296875 5.484375 -14.890625 L 5.484375 -13.109375 C 5.484375 -12.515625 5.578125 -12.144531 5.765625 -12 C 5.953125 -11.863281 6.128906 -11.796875 6.296875 -11.796875 Z M 13.5 -11.796875 "/></g></g></g><g fill="#f7f8fd" fill-opacity="1"><g transform="translate(196.417777, 249.184642)"><g><path d="M 18.234375 -18 C 18.703125 -17.425781 19.046875 -16.644531 19.265625 -15.65625 C 19.367188 -15.1875 19.445312 -14.664062 19.5 -14.09375 C 19.550781 -13.519531 19.578125 -12.90625 19.578125 -12.25 L 19.578125 -7.5 C 19.578125 -6.832031 19.550781 -6.207031 19.5 -5.625 C 19.445312 -5.050781 19.367188 -4.535156 19.265625 -4.078125 C 19.046875 -3.097656 18.703125 -2.304688 18.234375 -1.703125 C 17.742188 -1.078125 17.125 -0.640625 16.375 -0.390625 C 15.601562 -0.109375 14.695312 0.03125 13.65625 0.03125 L 7.8125 0.03125 C 6.757812 0.03125 5.863281 -0.109375 5.125 -0.390625 C 4.375 -0.640625 3.753906 -1.082031 3.265625 -1.71875 C 2.785156 -2.34375 2.441406 -3.128906 2.234375 -4.078125 C 2.117188 -4.535156 2.035156 -5.050781 1.984375 -5.625 C 1.941406 -6.207031 1.921875 -6.832031 1.921875 -7.5 L 1.921875 -12.25 C 1.921875 -13.625 2.023438 -14.757812 2.234375 -15.65625 C 2.441406 -16.59375 2.785156 -17.375 3.265625 -18 C 3.753906 -18.601562 4.375 -19.050781 5.125 -19.34375 C 5.894531 -19.613281 6.789062 -19.75 7.8125 -19.75 L 13.65625 -19.75 C 14.695312 -19.75 15.601562 -19.613281 16.375 -19.34375 C 17.125 -19.050781 17.742188 -18.601562 18.234375 -18 Z M 16.015625 -12.65625 C 16.015625 -13.007812 16.003906 -13.332031 15.984375 -13.625 C 15.972656 -13.914062 15.941406 -14.179688 15.890625 -14.421875 C 15.828125 -14.867188 15.691406 -15.226562 15.484375 -15.5 C 15.328125 -15.726562 15.085938 -15.90625 14.765625 -16.03125 C 14.609375 -16.082031 14.425781 -16.125 14.21875 -16.15625 C 14.019531 -16.1875 13.796875 -16.203125 13.546875 -16.203125 L 7.9375 -16.203125 C 7.675781 -16.203125 7.445312 -16.1875 7.25 -16.15625 C 7.050781 -16.125 6.875 -16.082031 6.71875 -16.03125 C 6.394531 -15.90625 6.148438 -15.726562 5.984375 -15.5 C 5.890625 -15.375 5.8125 -15.21875 5.75 -15.03125 C 5.6875 -14.851562 5.628906 -14.648438 5.578125 -14.421875 C 5.546875 -14.179688 5.519531 -13.914062 5.5 -13.625 C 5.476562 -13.332031 5.46875 -13.007812 5.46875 -12.65625 L 5.46875 -7.078125 C 5.46875 -6.722656 5.476562 -6.394531 5.5 -6.09375 C 5.519531 -5.800781 5.546875 -5.535156 5.578125 -5.296875 C 5.628906 -5.085938 5.6875 -4.890625 5.75 -4.703125 C 5.8125 -4.523438 5.890625 -4.375 5.984375 -4.25 C 6.148438 -3.988281 6.394531 -3.8125 6.71875 -3.71875 C 7 -3.601562 7.40625 -3.546875 7.9375 -3.546875 L 13.546875 -3.546875 C 14.066406 -3.546875 14.472656 -3.601562 14.765625 -3.71875 C 15.085938 -3.8125 15.328125 -3.988281 15.484375 -4.25 C 15.671875 -4.488281 15.804688 -4.835938 15.890625 -5.296875 C 15.941406 -5.535156 15.972656 -5.800781 15.984375 -6.09375 C 16.003906 -6.394531 16.015625 -6.722656 16.015625 -7.078125 Z M 16.015625 -12.65625 "/></g></g></g><g fill="#f7f8fd" fill-opacity="1"><g transform="translate(217.903097, 249.184642)"><g><path d="M 18.265625 -14.015625 L 18.265625 -13.875 C 18.265625 -13.894531 18.265625 -13.90625 18.265625 -13.90625 C 18.265625 -13.914062 18.265625 -13.929688 18.265625 -13.953125 C 18.265625 -13.960938 18.265625 -13.972656 18.265625 -13.984375 C 18.265625 -13.992188 18.265625 -14.003906 18.265625 -14.015625 Z M 18.71875 -1.03125 C 18.8125 -0.90625 18.84375 -0.710938 18.8125 -0.453125 C 18.769531 -0.128906 18.585938 0.03125 18.265625 0.03125 L 15.625 0.03125 C 15.414062 0.03125 15.25 -0.0195312 15.125 -0.125 C 15.070312 -0.15625 15.023438 -0.203125 14.984375 -0.265625 C 14.953125 -0.328125 14.910156 -0.390625 14.859375 -0.453125 L 10.515625 -8.15625 L 5.46875 -8.15625 L 5.46875 -0.8125 C 5.46875 -0.445312 5.382812 -0.210938 5.21875 -0.109375 C 5.050781 -0.015625 4.910156 0.03125 4.796875 0.03125 L 2.609375 0.03125 C 2.492188 0.03125 2.347656 -0.015625 2.171875 -0.109375 C 2.003906 -0.210938 1.921875 -0.445312 1.921875 -0.8125 L 1.921875 -10.875 C 1.921875 -11.25 2.003906 -11.476562 2.171875 -11.5625 C 2.347656 -11.65625 2.492188 -11.703125 2.609375 -11.703125 L 13.03125 -11.703125 C 13.644531 -11.703125 14.070312 -11.875 14.3125 -12.21875 C 14.5625 -12.570312 14.6875 -13.148438 14.6875 -13.953125 C 14.6875 -14.742188 14.5625 -15.316406 14.3125 -15.671875 C 14.070312 -16.023438 13.644531 -16.203125 13.03125 -16.203125 L 2.609375 -16.203125 C 2.492188 -16.203125 2.347656 -16.242188 2.171875 -16.328125 C 2.003906 -16.421875 1.921875 -16.648438 1.921875 -17.015625 L 1.921875 -18.90625 C 1.921875 -19.289062 2.003906 -19.523438 2.171875 -19.609375 C 2.347656 -19.703125 2.492188 -19.75 2.609375 -19.75 L 13.65625 -19.75 C 15.300781 -19.75 16.484375 -19.238281 17.203125 -18.21875 C 17.890625 -17.226562 18.242188 -15.804688 18.265625 -13.953125 C 18.242188 -12.097656 17.890625 -10.675781 17.203125 -9.6875 C 16.597656 -8.851562 15.707031 -8.363281 14.53125 -8.21875 Z M 18.71875 -1.03125 "/></g></g></g><g fill="#f7f8fd" fill-opacity="1"><g transform="translate(238.645866, 249.184642)"><g><path d="M 4.796875 -19.75 C 4.890625 -19.75 5.023438 -19.703125 5.203125 -19.609375 C 5.378906 -19.515625 5.46875 -19.28125 5.46875 -18.90625 L 5.46875 -0.8125 C 5.46875 -0.445312 5.378906 -0.210938 5.203125 -0.109375 C 5.023438 -0.015625 4.890625 0.03125 4.796875 0.03125 L 2.59375 0.03125 C 2.488281 0.03125 2.347656 -0.015625 2.171875 -0.109375 C 2.003906 -0.210938 1.921875 -0.445312 1.921875 -0.8125 L 1.921875 -18.90625 C 1.921875 -19.28125 2.003906 -19.515625 2.171875 -19.609375 C 2.347656 -19.703125 2.488281 -19.75 2.59375 -19.75 Z M 4.796875 -19.75 "/></g></g></g><g fill="#f7f8fd" fill-opacity="1"><g transform="translate(246.02275, 249.184642)"><g><path d="M 16.328125 -4.296875 C 16.429688 -4.296875 16.570312 -4.25 16.75 -4.15625 C 16.925781 -4.070312 17.015625 -3.84375 17.015625 -3.46875 L 17.015625 -0.84375 C 17.015625 -0.46875 16.925781 -0.238281 16.75 -0.15625 C 16.570312 -0.0703125 16.429688 -0.03125 16.328125 -0.03125 L 7.8125 -0.03125 C 7.28125 -0.03125 6.789062 -0.0625 6.34375 -0.125 C 5.90625 -0.1875 5.5 -0.289062 5.125 -0.4375 C 4.34375 -0.707031 3.722656 -1.144531 3.265625 -1.75 C 2.785156 -2.375 2.441406 -3.15625 2.234375 -4.09375 C 2.148438 -4.5 2.078125 -4.941406 2.015625 -5.421875 C 1.960938 -5.898438 1.929688 -6.414062 1.921875 -6.96875 L 1.921875 -7.09375 L 1.96875 -10.109375 C 2.007812 -10.285156 2.097656 -10.488281 2.234375 -10.71875 C 2.578125 -11.34375 3.117188 -11.675781 3.859375 -11.71875 L 16.234375 -11.75 C 16.328125 -11.75 16.457031 -11.703125 16.625 -11.609375 C 16.800781 -11.523438 16.890625 -11.300781 16.890625 -10.9375 L 16.890625 -9.03125 C 16.890625 -8.664062 16.800781 -8.4375 16.625 -8.34375 C 16.457031 -8.25 16.328125 -8.203125 16.234375 -8.203125 L 5.515625 -8.203125 C 5.515625 -8.203125 5.507812 -8.113281 5.5 -7.9375 C 5.488281 -7.757812 5.476562 -7.554688 5.46875 -7.328125 C 5.46875 -7.109375 5.46875 -6.910156 5.46875 -6.734375 C 5.46875 -6.554688 5.46875 -6.46875 5.46875 -6.46875 C 5.476562 -6.40625 5.484375 -6.335938 5.484375 -6.265625 C 5.484375 -6.191406 5.492188 -6.125 5.515625 -6.0625 C 5.578125 -5.613281 5.710938 -5.253906 5.921875 -4.984375 C 6.109375 -4.742188 6.347656 -4.566406 6.640625 -4.453125 C 6.816406 -4.410156 7.003906 -4.375 7.203125 -4.34375 C 7.398438 -4.3125 7.628906 -4.296875 7.890625 -4.296875 Z M 4.03125 -11.53125 Z M 16.34375 -19.796875 C 16.4375 -19.796875 16.570312 -19.75 16.75 -19.65625 C 16.925781 -19.5625 17.015625 -19.328125 17.015625 -18.953125 L 17.015625 -17.0625 C 17.015625 -16.695312 16.925781 -16.46875 16.75 -16.375 C 16.570312 -16.28125 16.4375 -16.234375 16.34375 -16.234375 L 2.5625 -16.25 C 2.46875 -16.25 2.335938 -16.289062 2.171875 -16.375 C 2.003906 -16.46875 1.921875 -16.695312 1.921875 -17.0625 L 1.921875 -18.9375 C 1.921875 -19.320312 2.003906 -19.5625 2.171875 -19.65625 C 2.335938 -19.75 2.46875 -19.796875 2.5625 -19.796875 Z M 16.34375 -19.796875 "/></g></g></g><g fill="#f7f8fd" fill-opacity="1"><g transform="translate(264.945085, 249.184642)"><g><path d="M 13.5 -11.796875 C 14.738281 -11.796875 15.6875 -11.351562 16.34375 -10.46875 C 16.96875 -9.613281 17.28125 -8.398438 17.28125 -6.828125 L 17.28125 -4.71875 C 17.28125 -3.34375 16.976562 -2.21875 16.375 -1.34375 C 15.75 -0.445312 14.773438 0 13.453125 0 L 2.640625 0 C 2.523438 0 2.378906 -0.0390625 2.203125 -0.125 C 2.023438 -0.21875 1.9375 -0.445312 1.9375 -0.8125 L 1.9375 -2.734375 C 1.9375 -3.097656 2.023438 -3.320312 2.203125 -3.40625 C 2.378906 -3.5 2.523438 -3.546875 2.640625 -3.546875 L 12.875 -3.546875 C 13.082031 -3.546875 13.226562 -3.582031 13.3125 -3.65625 C 13.40625 -3.726562 13.472656 -3.796875 13.515625 -3.859375 C 13.660156 -4.097656 13.734375 -4.429688 13.734375 -4.859375 L 13.734375 -6.921875 C 13.734375 -7.515625 13.632812 -7.882812 13.4375 -8.03125 C 13.25 -8.175781 13.066406 -8.25 12.890625 -8.25 L 5.703125 -8.25 C 5.210938 -8.25 4.707031 -8.3125 4.1875 -8.4375 C 3.664062 -8.5625 3.222656 -8.875 2.859375 -9.375 C 2.234375 -10.25 1.921875 -11.523438 1.921875 -13.203125 L 1.921875 -15.03125 C 1.921875 -16.4375 2.234375 -17.570312 2.859375 -18.4375 C 3.472656 -19.3125 4.4375 -19.75 5.75 -19.75 L 16.078125 -19.75 C 16.179688 -19.75 16.316406 -19.703125 16.484375 -19.609375 C 16.660156 -19.523438 16.75 -19.300781 16.75 -18.9375 L 16.75 -17.015625 C 16.75 -16.648438 16.660156 -16.421875 16.484375 -16.328125 C 16.316406 -16.242188 16.179688 -16.203125 16.078125 -16.203125 L 6.328125 -16.203125 C 6.117188 -16.203125 5.96875 -16.171875 5.875 -16.109375 C 5.789062 -16.046875 5.726562 -15.972656 5.6875 -15.890625 C 5.550781 -15.628906 5.484375 -15.296875 5.484375 -14.890625 L 5.484375 -13.109375 C 5.484375 -12.515625 5.578125 -12.144531 5.765625 -12 C 5.953125 -11.863281 6.128906 -11.796875 6.296875 -11.796875 Z M 13.5 -11.796875 "/></g></g></g><g fill="#f7f8fd" fill-opacity="1"><g transform="translate(284.139138, 249.184642)"><g/></g></g></svg>